# xmcd CD database file
#
# Track frame offsets:
#	150
#	15109
#	37694
#	58094
#	95443
#	136237
#	162550
#	183095
#	208705
#	232071
#	248964
#	274186
#	300000
#
# Disc length: 4470 seconds
#
# Revision: 0
# Processed by: cddbd v1.5.1PL0 Copyright (c) Steve Scherf et al.
# Submitted via: CDex 1.51
#
DISCID=9f11740d
DTITLE=Eddie Lockjaw Davis - 80th Birthday Celebration CD1 - Simplicity Is My Theme (The Fifties)
DYEAR=2003
DGENRE=Jazz
TTITLE0=Whirl-A-Licks
TTITLE1=Three Deuces
TTITLE2=Body And Soul
TTITLE3=Very Saxy
TTITLE4=The Rev
TTITLE5=Foxy
TTITLE6=I've Got A Girl
TTITLE7=We'll Be Together Again
TTITLE8=Untitled Blues
TTITLE9=Hello Little Boy
TTITLE10=I Cover The Waterfront
TTITLE11=It's A Pity To Say Goodnight
TTITLE12=The Stolen Moment
EXTD=YEAR: 2003
EXTT0=
EXTT1=
EXTT2=
EXTT3=
EXTT4=
EXTT5=
EXTT6=
EXTT7=
EXTT8=
EXTT9=
EXTT10=
EXTT11=
EXTT12=
PLAYORDER=
